# xmcd CD database file
#
# Track frame offsets:
#	150
#	5337
#	17512
#	31139
#	45933
#	52635
#	62022
#	71012
#	76654
#	93121
#	105588
#	124282
#	130237
#	139906
#	152923
#	165253
#	178357
#	194949
#	204396
#	224273
#	235283
#
# Disc length: 3247 seconds
#
# Revision: 1
# Processed by: cddbd v1.5.2PL0 Copyright (c) Steve Scherf et al.
# Submitted via: CDex 1.70beta2
#
DISCID=150cad15
DTITLE=The Swingle Singers - Bach Hits Back
DYEAR=1991
DGENRE=Jazz
TTITLE0=Johann Sebastian Bach - Ein Feste Burg
TTITLE1=Johann Sebastian Bach - Organ Fugue From Fantasia And Fugue
TTITLE2=Johann Sebastian Bach - The Well-Tempered Clavier: Prelude Xviii
TTITLE3=Johann Sebastian Bach - Wachet Auf, Cantata no 140: Chorale Prelude (Sleepers Awake)
TTITLE4=Johann Sebastian Bach - Wachet Auf: Chorale
TTITLE5=Johann Sebastian Bach - Liebster Jesu, Wir Sind Hier
TTITLE6=Johann Sebastian Bach - In Dulci Jubilo - Chorale Prelude
TTITLE7=Johann Sebastian Bach - In Dulci Jubilo - Chorale
TTITLE8=Johann Sebastian Bach - Sonata no 2 For Violin: Andante
TTITLE9=Johann Sebastian Bach - Brandenburg Concerto no 3: First
TTITLE10=Johann Sebastian Bach - Schafe Koennen Sicher Weiden (Sheep May Safely Graze)
TTITLE11=Johann Sebastian Bach - Suite no. 2: Badinerie
TTITLE12=Johann Sebastian Bach - The Well-Tempered Clavier: Fugue Viii
TTITLE13=Johann Sebastian Bach - Three-Part Invention
TTITLE14=Johann Sebastian Bach - Mass in b Minor: et Resurrexit
TTITLE15=Johann Sebastian Bach - Bist du Bei Mir
TTITLE16=Johann Sebastian Bach - St Mathew Passion: Blute Nur, du Liebes Herz
TTITLE17=Johann Sebastian Bach - Organ Fugue: Alla Gigue
TTITLE18=Johann Sebastian Bach - Suite no. 3: Air (Air on a g String)
TTITLE19=Johann Sebastian Bach - Little Organ Fugue
TTITLE20=Johann Sebastian Bach - Cantata no. 60: es Ist Genug
EXTD=YEAR: 1991
EXTT0=
EXTT1=
EXTT2=
EXTT3=
EXTT4=
EXTT5=
EXTT6=
EXTT7=
EXTT8=
EXTT9=
EXTT10=
EXTT11=
EXTT12=
EXTT13=
EXTT14=
EXTT15=
EXTT16=
EXTT17=
EXTT18=
EXTT19=
EXTT20=
PLAYORDER=
